<svg xmlns="http://www.w3.org/2000/svg" xmlns:xlink="http://www.w3.org/1999/xlink" width="250" zoomAndPan="magnify" viewBox="0 0 187.5 56.249996" height="75" preserveAspectRatio="xMidYMid meet" version="1.0"><defs><g/></defs><g fill="#ffffff" fill-opacity="1"><g transform="translate(3.05811, 41.762881)"><g><path d="M 9.828125 -19.375 C 10.617188 -20.375 11.640625 -21.125 12.890625 -21.625 C 14.148438 -22.132812 15.59375 -22.390625 17.21875 -22.390625 L 17.21875 -15.4375 C 16.519531 -15.519531 15.941406 -15.5625 15.484375 -15.5625 C 13.828125 -15.5625 12.53125 -15.113281 11.59375 -14.21875 C 10.664062 -13.320312 10.203125 -11.953125 10.203125 -10.109375 L 10.203125 0 L 2.484375 0 L 2.484375 -22.015625 L 9.828125 -22.015625 Z M 9.828125 -19.375 "/></g></g></g><g fill="#ffffff" fill-opacity="1"><g transform="translate(16.218459, 41.762881)"><g><path d="M 24.984375 -10.96875 C 24.984375 -10.914062 24.941406 -10.28125 24.859375 -9.0625 L 8.859375 -9.0625 C 9.179688 -7.925781 9.804688 -7.050781 10.734375 -6.4375 C 11.671875 -5.832031 12.847656 -5.53125 14.265625 -5.53125 C 15.316406 -5.53125 16.226562 -5.675781 17 -5.96875 C 17.769531 -6.269531 18.550781 -6.757812 19.34375 -7.4375 L 23.40625 -3.203125 C 21.257812 -0.828125 18.128906 0.359375 14.015625 0.359375 C 11.441406 0.359375 9.179688 -0.125 7.234375 -1.09375 C 5.285156 -2.070312 3.773438 -3.425781 2.703125 -5.15625 C 1.628906 -6.894531 1.09375 -8.859375 1.09375 -11.046875 C 1.09375 -13.210938 1.613281 -15.15625 2.65625 -16.875 C 3.695312 -18.59375 5.140625 -19.941406 6.984375 -20.921875 C 8.828125 -21.898438 10.898438 -22.390625 13.203125 -22.390625 C 15.398438 -22.390625 17.390625 -21.929688 19.171875 -21.015625 C 20.960938 -20.109375 22.378906 -18.796875 23.421875 -17.078125 C 24.460938 -15.359375 24.984375 -13.320312 24.984375 -10.96875 Z M 13.25 -16.90625 C 12.050781 -16.90625 11.050781 -16.566406 10.25 -15.890625 C 9.457031 -15.210938 8.953125 -14.289062 8.734375 -13.125 L 17.75 -13.125 C 17.53125 -14.289062 17.019531 -15.210938 16.21875 -15.890625 C 15.425781 -16.566406 14.4375 -16.90625 13.25 -16.90625 Z M 13.25 -16.90625 "/></g></g></g><g fill="#ffffff" fill-opacity="1"><g transform="translate(37.462511, 41.762881)"><g><path d="M 11.859375 -22.390625 C 15.515625 -22.390625 18.300781 -21.554688 20.21875 -19.890625 C 22.144531 -18.222656 23.109375 -15.671875 23.109375 -12.234375 L 23.109375 0 L 15.921875 0 L 15.921875 -2.84375 C 14.816406 -0.707031 12.648438 0.359375 9.421875 0.359375 C 7.710938 0.359375 6.234375 0.0625 4.984375 -0.53125 C 3.742188 -1.125 2.804688 -1.925781 2.171875 -2.9375 C 1.535156 -3.957031 1.21875 -5.117188 1.21875 -6.421875 C 1.21875 -8.503906 2.015625 -10.117188 3.609375 -11.265625 C 5.210938 -12.421875 7.679688 -13 11.015625 -13 L 15.390625 -13 C 15.253906 -15.332031 13.695312 -16.5 10.71875 -16.5 C 9.664062 -16.5 8.597656 -16.328125 7.515625 -15.984375 C 6.429688 -15.648438 5.507812 -15.179688 4.75 -14.578125 L 2.15625 -19.828125 C 3.375 -20.640625 4.851562 -21.269531 6.59375 -21.71875 C 8.34375 -22.164062 10.097656 -22.390625 11.859375 -22.390625 Z M 11.578125 -4.515625 C 12.472656 -4.515625 13.257812 -4.726562 13.9375 -5.15625 C 14.613281 -5.59375 15.097656 -6.226562 15.390625 -7.0625 L 15.390625 -8.984375 L 12.0625 -8.984375 C 9.8125 -8.984375 8.6875 -8.238281 8.6875 -6.75 C 8.6875 -6.070312 8.941406 -5.53125 9.453125 -5.125 C 9.972656 -4.71875 10.679688 -4.515625 11.578125 -4.515625 Z M 11.578125 -4.515625 "/></g></g></g><g fill="#ffffff" fill-opacity="1"><g transform="translate(58.137859, 41.762881)"><g><path d="M 25.875 -30.140625 L 25.875 0 L 18.53125 0 L 18.53125 -2.1875 C 17.09375 -0.488281 14.9375 0.359375 12.0625 0.359375 C 10.0625 0.359375 8.234375 -0.101562 6.578125 -1.03125 C 4.929688 -1.96875 3.625 -3.300781 2.65625 -5.03125 C 1.695312 -6.769531 1.21875 -8.773438 1.21875 -11.046875 C 1.21875 -13.328125 1.695312 -15.328125 2.65625 -17.046875 C 3.625 -18.765625 4.929688 -20.082031 6.578125 -21 C 8.234375 -21.925781 10.0625 -22.390625 12.0625 -22.390625 C 14.6875 -22.390625 16.71875 -21.628906 18.15625 -20.109375 L 18.15625 -30.140625 Z M 13.6875 -5.765625 C 15.019531 -5.765625 16.117188 -6.234375 16.984375 -7.171875 C 17.847656 -8.109375 18.28125 -9.398438 18.28125 -11.046875 C 18.28125 -12.671875 17.851562 -13.941406 17 -14.859375 C 16.144531 -15.785156 15.039062 -16.25 13.6875 -16.25 C 12.332031 -16.25 11.222656 -15.785156 10.359375 -14.859375 C 9.492188 -13.941406 9.0625 -12.671875 9.0625 -11.046875 C 9.0625 -9.398438 9.492188 -8.109375 10.359375 -7.171875 C 11.222656 -6.234375 12.332031 -5.765625 13.6875 -5.765625 Z M 13.6875 -5.765625 "/></g></g></g><g fill="#fab713" fill-opacity="1"><g transform="translate(81.659942, 41.762881)"><g><path d="M 10.890625 -21.203125 L 16.125 -21.203125 L 16.125 -15.4375 L 11.09375 -15.4375 L 11.09375 0 L 3.375 0 L 3.375 -15.4375 L 0.15625 -15.4375 L 0.15625 -21.203125 L 3.375 -21.203125 L 3.375 -21.78125 C 3.375 -24.457031 4.175781 -26.582031 5.78125 -28.15625 C 7.394531 -29.726562 9.648438 -30.515625 12.546875 -30.515625 C 13.523438 -30.515625 14.472656 -30.414062 15.390625 -30.21875 C 16.316406 -30.03125 17.078125 -29.75 17.671875 -29.375 L 15.765625 -23.921875 C 15.003906 -24.359375 14.234375 -24.578125 13.453125 -24.578125 C 12.640625 -24.578125 12.007812 -24.332031 11.5625 -23.84375 C 11.113281 -23.351562 10.890625 -22.632812 10.890625 -21.6875 Z M 10.890625 -21.203125 "/></g></g></g><g fill="#fab713" fill-opacity="1"><g transform="translate(93.317291, 41.762881)"><g><path d="M 11.859375 -22.390625 C 15.515625 -22.390625 18.300781 -21.554688 20.21875 -19.890625 C 22.144531 -18.222656 23.109375 -15.671875 23.109375 -12.234375 L 23.109375 0 L 15.921875 0 L 15.921875 -2.84375 C 14.816406 -0.707031 12.648438 0.359375 9.421875 0.359375 C 7.710938 0.359375 6.234375 0.0625 4.984375 -0.53125 C 3.742188 -1.125 2.804688 -1.925781 2.171875 -2.9375 C 1.535156 -3.957031 1.21875 -5.117188 1.21875 -6.421875 C 1.21875 -8.503906 2.015625 -10.117188 3.609375 -11.265625 C 5.210938 -12.421875 7.679688 -13 11.015625 -13 L 15.390625 -13 C 15.253906 -15.332031 13.695312 -16.5 10.71875 -16.5 C 9.664062 -16.5 8.597656 -16.328125 7.515625 -15.984375 C 6.429688 -15.648438 5.507812 -15.179688 4.75 -14.578125 L 2.15625 -19.828125 C 3.375 -20.640625 4.851562 -21.269531 6.59375 -21.71875 C 8.34375 -22.164062 10.097656 -22.390625 11.859375 -22.390625 Z M 11.578125 -4.515625 C 12.472656 -4.515625 13.257812 -4.726562 13.9375 -5.15625 C 14.613281 -5.59375 15.097656 -6.226562 15.390625 -7.0625 L 15.390625 -8.984375 L 12.0625 -8.984375 C 9.8125 -8.984375 8.6875 -8.238281 8.6875 -6.75 C 8.6875 -6.070312 8.941406 -5.53125 9.453125 -5.125 C 9.972656 -4.71875 10.679688 -4.515625 11.578125 -4.515625 Z M 11.578125 -4.515625 "/></g></g></g><g fill="#fab713" fill-opacity="1"><g transform="translate(113.992639, 41.762881)"><g><path d="M 10.484375 0.359375 C 8.640625 0.359375 6.820312 0.148438 5.03125 -0.265625 C 3.25 -0.679688 1.816406 -1.226562 0.734375 -1.90625 L 3.046875 -7.1875 C 4.046875 -6.5625 5.234375 -6.066406 6.609375 -5.703125 C 7.992188 -5.335938 9.363281 -5.15625 10.71875 -5.15625 C 11.96875 -5.15625 12.851562 -5.285156 13.375 -5.546875 C 13.90625 -5.804688 14.171875 -6.175781 14.171875 -6.65625 C 14.171875 -7.144531 13.851562 -7.488281 13.21875 -7.6875 C 12.582031 -7.894531 11.578125 -8.09375 10.203125 -8.28125 C 8.441406 -8.5 6.941406 -8.785156 5.703125 -9.140625 C 4.472656 -9.492188 3.410156 -10.144531 2.515625 -11.09375 C 1.617188 -12.039062 1.171875 -13.367188 1.171875 -15.078125 C 1.171875 -16.484375 1.59375 -17.734375 2.4375 -18.828125 C 3.28125 -19.921875 4.503906 -20.785156 6.109375 -21.421875 C 7.722656 -22.066406 9.65625 -22.390625 11.90625 -22.390625 C 13.5 -22.390625 15.082031 -22.222656 16.65625 -21.890625 C 18.226562 -21.566406 19.539062 -21.109375 20.59375 -20.515625 L 18.28125 -15.28125 C 16.332031 -16.363281 14.21875 -16.90625 11.9375 -16.90625 C 10.71875 -16.90625 9.820312 -16.757812 9.25 -16.46875 C 8.6875 -16.1875 8.40625 -15.816406 8.40625 -15.359375 C 8.40625 -14.835938 8.71875 -14.472656 9.34375 -14.265625 C 9.96875 -14.066406 11 -13.863281 12.4375 -13.65625 C 14.25 -13.382812 15.75 -13.070312 16.9375 -12.71875 C 18.132812 -12.363281 19.171875 -11.71875 20.046875 -10.78125 C 20.929688 -9.851562 21.375 -8.546875 21.375 -6.859375 C 21.375 -5.484375 20.953125 -4.242188 20.109375 -3.140625 C 19.265625 -2.046875 18.023438 -1.1875 16.390625 -0.5625 C 14.753906 0.0507812 12.785156 0.359375 10.484375 0.359375 Z M 10.484375 0.359375 "/></g></g></g><g fill="#fab713" fill-opacity="1"><g transform="translate(131.377634, 41.762881)"><g><path d="M 17.671875 -0.890625 C 17.023438 -0.484375 16.234375 -0.175781 15.296875 0.03125 C 14.359375 0.25 13.363281 0.359375 12.3125 0.359375 C 9.4375 0.359375 7.226562 -0.34375 5.6875 -1.75 C 4.144531 -3.15625 3.375 -5.253906 3.375 -8.046875 L 3.375 -15.4375 L 0.15625 -15.4375 L 0.15625 -21.203125 L 3.375 -21.203125 L 3.375 -26.9375 L 11.09375 -26.9375 L 11.09375 -21.203125 L 16.125 -21.203125 L 16.125 -15.4375 L 11.09375 -15.4375 L 11.09375 -8.125 C 11.09375 -7.34375 11.300781 -6.726562 11.71875 -6.28125 C 12.132812 -5.832031 12.695312 -5.609375 13.40625 -5.609375 C 14.300781 -5.609375 15.085938 -5.835938 15.765625 -6.296875 Z M 17.671875 -0.890625 "/></g></g></g><g fill="#fab713" fill-opacity="1"><g transform="translate(144.700471, 41.762881)"><g><path d="M 24.984375 -10.96875 C 24.984375 -10.914062 24.941406 -10.28125 24.859375 -9.0625 L 8.859375 -9.0625 C 9.179688 -7.925781 9.804688 -7.050781 10.734375 -6.4375 C 11.671875 -5.832031 12.847656 -5.53125 14.265625 -5.53125 C 15.316406 -5.53125 16.226562 -5.675781 17 -5.96875 C 17.769531 -6.269531 18.550781 -6.757812 19.34375 -7.4375 L 23.40625 -3.203125 C 21.257812 -0.828125 18.128906 0.359375 14.015625 0.359375 C 11.441406 0.359375 9.179688 -0.125 7.234375 -1.09375 C 5.285156 -2.070312 3.773438 -3.425781 2.703125 -5.15625 C 1.628906 -6.894531 1.09375 -8.859375 1.09375 -11.046875 C 1.09375 -13.210938 1.613281 -15.15625 2.65625 -16.875 C 3.695312 -18.59375 5.140625 -19.941406 6.984375 -20.921875 C 8.828125 -21.898438 10.898438 -22.390625 13.203125 -22.390625 C 15.398438 -22.390625 17.390625 -21.929688 19.171875 -21.015625 C 20.960938 -20.109375 22.378906 -18.796875 23.421875 -17.078125 C 24.460938 -15.359375 24.984375 -13.320312 24.984375 -10.96875 Z M 13.25 -16.90625 C 12.050781 -16.90625 11.050781 -16.566406 10.25 -15.890625 C 9.457031 -15.210938 8.953125 -14.289062 8.734375 -13.125 L 17.75 -13.125 C 17.53125 -14.289062 17.019531 -15.210938 16.21875 -15.890625 C 15.425781 -16.566406 14.4375 -16.90625 13.25 -16.90625 Z M 13.25 -16.90625 "/></g></g></g><g fill="#fab713" fill-opacity="1"><g transform="translate(165.94452, 41.762881)"><g><path d="M 9.828125 -19.375 C 10.617188 -20.375 11.640625 -21.125 12.890625 -21.625 C 14.148438 -22.132812 15.59375 -22.390625 17.21875 -22.390625 L 17.21875 -15.4375 C 16.519531 -15.519531 15.941406 -15.5625 15.484375 -15.5625 C 13.828125 -15.5625 12.53125 -15.113281 11.59375 -14.21875 C 10.664062 -13.320312 10.203125 -11.953125 10.203125 -10.109375 L 10.203125 0 L 2.484375 0 L 2.484375 -22.015625 L 9.828125 -22.015625 Z M 9.828125 -19.375 "/></g></g></g></svg>